<svg width="22" height="22" viewBox="0 0 22 22" fill="none" xmlns="http://www.w3.org/2000/svg">
<path d="M13.0625 2.0625C13.0625 1.51549 12.8452 0.990886 12.4584 0.604092C12.0716 0.217298 11.547 0 11 0C10.453 0 9.92839 0.217298 9.54159 0.604092C9.1548 0.990886 8.9375 1.51549 8.9375 2.0625C8.9375 2.60951 9.1548 3.13411 9.54159 3.52091C9.92839 3.9077 10.453 4.125 11 4.125C11.547 4.125 12.0716 3.9077 12.4584 3.52091C12.8452 3.13411 13.0625 2.60951 13.0625 2.0625ZM13.0625 19.9375C13.0625 19.3905 12.8452 18.8659 12.4584 18.4791C12.0716 18.0923 11.547 17.875 11 17.875C10.453 17.875 9.92839 18.0923 9.54159 18.4791C9.1548 18.8659 8.9375 19.3905 8.9375 19.9375C8.9375 20.4845 9.1548 21.0091 9.54159 21.3959C9.92839 21.7827 10.453 22 11 22C11.547 22 12.0716 21.7827 12.4584 21.3959C12.8452 21.0091 13.0625 20.4845 13.0625 19.9375ZM2.0625 13.0625C2.60951 13.0625 3.13411 12.8452 3.52091 12.4584C3.9077 12.0716 4.125 11.547 4.125 11C4.125 10.453 3.9077 9.92839 3.52091 9.54159C3.13411 9.1548 2.60951 8.9375 2.0625 8.9375C1.51549 8.9375 0.990886 9.1548 0.604092 9.54159C0.217298 9.92839 0 10.453 0 11C0 11.547 0.217298 12.0716 0.604092 12.4584C0.990886 12.8452 1.51549 13.0625 2.0625 13.0625ZM22 11C22 10.453 21.7827 9.92839 21.3959 9.54159C21.0091 9.1548 20.4845 8.9375 19.9375 8.9375C19.3905 8.9375 18.8659 9.1548 18.4791 9.54159C18.0923 9.92839 17.875 10.453 17.875 11C17.875 11.547 18.0923 12.0716 18.4791 12.4584C18.8659 12.8452 19.3905 13.0625 19.9375 13.0625C20.4845 13.0625 21.0091 12.8452 21.3959 12.4584C21.7827 12.0716 22 11.547 22 11ZM6.14023 18.7773C6.33181 18.5858 6.48377 18.3583 6.58745 18.108C6.69112 17.8577 6.74448 17.5895 6.74448 17.3186C6.74448 17.0476 6.69112 16.7794 6.58745 16.5291C6.48377 16.2788 6.33181 16.0513 6.14023 15.8598C5.94866 15.6682 5.72124 15.5162 5.47094 15.4126C5.22064 15.3089 4.95237 15.2555 4.68145 15.2555C4.13429 15.2555 3.60955 15.4729 3.22266 15.8598C2.83576 16.2467 2.61841 16.7714 2.61841 17.3186C2.61841 17.8657 2.83576 18.3904 3.22266 18.7773C3.60955 19.1642 4.13429 19.3816 4.68145 19.3816C5.2286 19.3816 5.75334 19.1642 6.14023 18.7773ZM6.14023 6.13594C6.34132 5.9466 6.50233 5.7188 6.61371 5.46605C6.72509 5.2133 6.78458 4.94076 6.78863 4.66459C6.79268 4.38841 6.74122 4.11424 6.6373 3.85834C6.53339 3.60243 6.37913 3.37 6.18368 3.17484C5.98824 2.97968 5.75558 2.82577 5.49952 2.72223C5.24346 2.61869 4.96922 2.56764 4.69305 2.57209C4.41689 2.57655 4.14443 2.63644 3.89185 2.74819C3.63926 2.85994 3.4117 3.02129 3.22266 3.22266C2.83576 3.60955 2.61841 4.13429 2.61841 4.68145C2.61841 5.2286 2.83576 5.75334 3.22266 6.14023C3.60955 6.52713 4.13429 6.74448 4.68145 6.74448C5.2286 6.74448 5.75334 6.52713 6.14023 6.14023V6.13594ZM15.8598 18.7773C16.0513 18.9689 16.2788 19.1209 16.5291 19.2246C16.7794 19.3282 17.0476 19.3816 17.3186 19.3816C17.5895 19.3816 17.8577 19.3282 18.108 19.2246C18.3583 19.1209 18.5858 18.9689 18.7773 18.7773C18.9689 18.5858 19.1209 18.3583 19.2246 18.108C19.3282 17.8577 19.3816 17.5895 19.3816 17.3186C19.3816 17.0476 19.3282 16.7794 19.2246 16.5291C19.1209 16.2788 18.9689 16.0513 18.7773 15.8598C18.5858 15.6682 18.3583 15.5162 18.108 15.4126C17.8577 15.3089 17.5895 15.2555 17.3186 15.2555C17.0476 15.2555 16.7794 15.3089 16.5291 15.4126C16.2788 15.5162 16.0513 15.6682 15.8598 15.8598C15.6682 16.0513 15.5162 16.2788 15.4126 16.5291C15.3089 16.7794 15.2555 17.0476 15.2555 17.3186C15.2555 17.5895 15.3089 17.8577 15.4126 18.108C15.5162 18.3583 15.6682 18.5858 15.8598 18.7773Z" fill="#4CEAAC"/>
</svg>
